<svg width="32" height="32" viewBox="0 0 32 32" fill="none" xmlns="http://www.w3.org/2000/svg">
  <defs>
    <linearGradient id="gradient" x1="0%" y1="0%" x2="100%" y2="100%">
      <stop offset="0%" style="stop-color:#3B82F6;stop-opacity:1" />
      <stop offset="50%" style="stop-color:#8B5CF6;stop-opacity:1" />
      <stop offset="100%" style="stop-color:#06B6D4;stop-opacity:1" />
    </linearGradient>
  </defs>
  <rect width="32" height="32" rx="8" fill="url(#gradient)"/>
  <path d="M16 8C19.866 8 23 11.134 23 15C23 18.866 19.866 22 16 22C12.134 22 9 18.866 9 15C9 11.134 12.134 8 16 8ZM16 10C13.239 10 11 12.239 11 15C11 17.761 13.239 20 16 20C18.761 20 21 17.761 21 15C21 12.239 18.761 10 16 10ZM16 12C17.657 12 19 13.343 19 15C19 16.657 17.657 18 16 18C14.343 18 13 16.657 13 15C13 13.343 14.343 12 16 12Z" fill="white"/>
  <circle cx="24" cy="8" r="4" fill="#F59E0B"/>
  <path d="M24 6L25 7L27 5" stroke="white" stroke-width="1.5" stroke-linecap="round" stroke-linejoin="round"/>
</svg>

